<svg width="25" height="24" viewBox="0 0 25 24" fill="none" xmlns="http://www.w3.org/2000/svg">
<g id="icon / jam-icons / outline &#38; logos / chevron-left">
<path id="Vector" d="M11.257 12.0002L16.207 16.9502C16.3026 17.0424 16.3787 17.1528 16.4311 17.2748C16.4836 17.3968 16.5111 17.528 16.5123 17.6608C16.5135 17.7936 16.4882 17.9252 16.4379 18.0481C16.3876 18.171 16.3133 18.2827 16.2194 18.3766C16.1256 18.4705 16.0139 18.5447 15.891 18.595C15.7681 18.6453 15.6364 18.6706 15.5036 18.6694C15.3709 18.6683 15.2396 18.6407 15.1176 18.5883C14.9956 18.5359 14.8853 18.4597 14.793 18.3642L9.13605 12.7072C8.94858 12.5197 8.84326 12.2653 8.84326 12.0002C8.84326 11.735 8.94858 11.4807 9.13605 11.2932L14.793 5.63618C14.9817 5.45402 15.2343 5.35323 15.4964 5.35551C15.7586 5.35778 16.0095 5.46295 16.1949 5.64836C16.3803 5.83377 16.4854 6.08458 16.4877 6.34678C16.49 6.60898 16.3892 6.86158 16.207 7.05018L11.257 12.0002Z" fill="#A5A5A5"/>
</g>
</svg>
